<?xml version="1.0" standalone="no"?>
<!DOCTYPE svg PUBLIC "-//W3C//DTD SVG 20010904//EN"
 "http://www.w3.org/TR/2001/REC-SVG-20010904/DTD/svg10.dtd">
<svg version="1.0" xmlns="http://www.w3.org/2000/svg"
 width="482.000000pt" height="212.000000pt" viewBox="0 0 482.000000 212.000000"
 preserveAspectRatio="xMidYMid meet">
<metadata>
Created by potrace 1.15, written by Peter Selinger 2001-2017
</metadata>
<g transform="translate(0.000000,212.000000) scale(0.100000,-0.100000)"
fill="#000000" stroke="none">
<path d="M3312 658 c-37 -162 -41 -199 -26 -205 19 -7 44 15 44 39 0 16 6 19
32 16 25 -2 34 -9 38 -28 7 -32 50 -42 50 -12 0 18 -43 222 -56 265 -3 11 -15
17 -33 17 -28 0 -29 -3 -49 -92z"/>
<path d="M3492 516 c3 -138 4 -141 26 -144 20 -3 22 1 22 42 0 44 1 46 25 40
16 -4 34 0 50 10 23 15 25 23 25 87 0 101 -6 109 -86 108 l-65 -1 3 -142z"/>
<path d="M3682 518 c3 -139 4 -143 26 -146 20 -3 22 1 22 42 0 44 1 46 25 40
16 -4 34 0 50 10 23 15 25 23 25 87 0 101 -6 109 -86 109 l-66 0 4 -142z"/>
</g>
</svg>
