<svg width="806" height="514" xmlns="http://www.w3.org/2000/svg">
 <defs>
  <filter height="200%" width="200%" y="-50%" x="-50%" id="svg_24_blur">
   <feGaussianBlur stdDeviation="0" in="SourceGraphic"/>
  </filter>
 </defs>
 <g>
  <title>background</title>
  <rect fill="none" id="canvas_background" height="516" width="808" y="-1" x="-1"/>
 </g>
 <g>
  <title>Layer 1</title>
  <path id="svg_1" fill="#3A7F0D" d="m339.772,0c0,0 44.536,108.954 -146.337,182.138c-103.716,39.755 -183.376,141.651 -88.262,299.055c7.877,-70.357 41.653,-225.485 186.888,-260.884c0,0 -135.176,50.546 -147.117,279.347c69.459,9.752 232.361,16.305 280.726,-125.062c63.866,-186.777 -85.898,-374.594 -85.898,-374.594z"/>
  <path id="svg_2" fill="#49A010" d="m145.007,498.704c147.456,-58.849 254.748,-196.71 269.556,-361.283c-30.145,-81.314 -74.791,-137.421 -74.791,-137.421s44.536,108.954 -146.337,182.138c-103.716,39.755 -183.376,141.651 -88.262,299.055c7.877,-70.357 41.653,-225.485 186.888,-260.884c-0.008,0.001 -134.782,50.421 -147.054,278.395z"/>
  <circle id="svg_3" fill="#3A7F0D" r="13.785" cy="171.985" cx="90.459"/>
  <g id="svg_4">
   <circle id="svg_5" fill="#49A010" r="9.846" cy="158.2" cx="133.782"/>
   <circle id="svg_6" fill="#49A010" r="24.615" cy="64.662" cx="124.921"/>
   <circle id="svg_7" fill="#49A010" r="7.877" cy="120.785" cx="200.736"/>
   <circle id="svg_8" fill="#49A010" r="22.646" cy="76.477" cx="266.713"/>
  </g>
  <g id="svg_9"/>
  <g id="svg_10"/>
  <g id="svg_11"/>
  <g id="svg_12"/>
  <g id="svg_13"/>
  <g id="svg_14"/>
  <g id="svg_15"/>
  <g id="svg_16"/>
  <g id="svg_17"/>
  <g id="svg_18"/>
  <g id="svg_19"/>
  <g id="svg_20"/>
  <g id="svg_21"/>
  <g id="svg_22"/>
  <g id="svg_23"/>
  <text filter="url(#svg_24_blur)" stroke="null" transform="matrix(4.061742416495946,0,0,3.832119265453286,-1638.2832523602813,-271.67898915262987) " xml:space="preserve" text-anchor="start" font-family="'Shadows Into Light', serif" font-size="29" id="svg_24" y="171.184459" x="511.645283" stroke-opacity="null" stroke-width="0" fill="#ffffff">MINTY</text>
  <text font-style="italic" xml:space="preserve" text-anchor="start" font-family="'Shadows Into Light', serif" font-size="29" id="svg_25" y="285.0375" x="454.5" stroke-opacity="null" stroke-width="0" stroke="null" fill="#ffffff">BudgetApp</text>
 </g>
</svg>